<?xml version="1.0" encoding="UTF-8"?>
<svg width="1630px" height="302px" viewBox="0 0 1630 302" version="1.1" xmlns="http://www.w3.org/2000/svg" xmlns:xlink="http://www.w3.org/1999/xlink">
    <title>TEDxIPS Youth-Logo-WOB-2x Copy 3</title>
    <g id="TEDxIPS-Youth-Logo-WOB-2x-Copy-3" stroke="none" stroke-width="1" fill="none" fill-rule="evenodd">
        <g id="IPS-Youth" transform="translate(1085.8904, 0.3922)" fill="#000000" fill-rule="nonzero">
            <polygon id="Path" points="26.6849122 4.13830189 0 4.13830189 0 296.388035 26.6849122 296.388035"></polygon>
            <path d="M104.314941,296.388035 L130.999854,296.388035 L130.999854,184.653884 L199.067785,184.653884 C260.856913,184.653884 292.821727,145.411366 292.821727,94.324743 C292.821727,43.2381197 260.856913,4.13830189 198.639684,4.13830189 L104.314941,4.13830189 L104.314941,296.388035 Z M130.999854,160.680273 L130.999854,28.1119128 L197.926184,28.1119128 C244.161005,28.1119128 266.564915,55.9384255 266.564915,94.324743 C266.564915,132.56836 244.161005,160.680273 198.354284,160.680273 L130.999854,160.680273 Z" id="Shape"></path>
            <path d="M514.295104,77.2007352 L540.123816,77.2007352 C538.126015,32.821015 499.739698,0 445.370973,0 C391.430348,0 349.904629,32.3929148 349.904629,79.4839362 C349.904629,117.014053 376.446841,140.559564 422.253562,154.11607 L457.215078,164.390475 C493.460895,174.95028 518.290706,188.506786 518.290706,218.3311 C518.290706,253.435316 486.468591,276.980826 442.802372,276.980826 C403.417154,276.980826 372.59394,258.001718 369.739938,223.325602 L342.341526,223.325602 C345.480927,269.560423 383.153744,301.382537 442.802372,301.382537 C506.1612,301.382537 544.119418,265.564821 544.119418,218.7592 C544.119418,170.241178 501.880198,150.833969 464.778182,140.416864 L433.954968,131.56946 C405.557655,123.578256 375.733341,109.16555 375.733341,78.3423357 C375.733341,46.9483214 403.845254,23.9736109 444.657472,23.9736109 C483.32919,23.9736109 511.013003,44.6651204 514.295104,77.2007352 Z" id="Path"></path>
        </g>
        <g id="TEDx" transform="translate(0, 5.828)" fill="#ED1C34">
            <polyline id="Fill-1" points="81.704 74.82 0 74.82 0 0 253.132 0 253.132 74.82 171.46 74.82 171.46 291.938 81.704 291.938 81.704 74.82"></polyline>
            <polyline id="Fill-2" points="267.086 0 512.82 0 512.82 74.82 356.906 74.82 356.906 111.204 512.82 111.204 512.82 180.734 356.906 180.734 356.906 217.118 512.86 217.118 512.86 291.938 267.086 291.938 267.086 0"></polyline>
            <path d="M617.75,217.118 L652.882,217.118 C708.836,217.118 717.016,171.718 717.016,144.29 C717.016,125.93 711.266,74.82 646.344,74.82 L617.75,74.82 L617.75,217.118 Z M527.938,0 L675.336,0 C772.492,0 806.836,71.962 806.836,145.54 C806.836,235.11 759.468,291.938 657.796,291.938 L527.938,291.938 L527.938,0 L527.938,0 Z" id="Fill-3"></path>
            <polyline id="Fill-4" points="935.898 180.156 908.5 134.656 881.782 180.156 815.968 180.156 878.446 88.156 818.29 0.156 884.118 0.156 908.5 43.656 933.578 0.156 999.39 0.156 939.25 88.156 1001.726 180.156 935.898 180.156"></polyline>
        </g>
    </g>
</svg>