<?xml version="1.0" encoding="UTF-8"?>
<svg width="1470px" height="150px" viewBox="0 0 1470 150" version="1.1" xmlns="http://www.w3.org/2000/svg" xmlns:xlink="http://www.w3.org/1999/xlink">
    <title>TEDxIPS Youth-Logo-BOW Copy</title>
    <g id="TEDxIPS-Youth-Logo-BOW-Copy" stroke="none" stroke-width="1" fill="none" fill-rule="evenodd">
        <g id="IPS-Youth" transform="translate(542.9452, -0.3039)" fill="#000000" fill-rule="nonzero">
            <polygon id="Path" points="13.3424561 2.06915094 -1.13686838e-13 2.06915094 -1.13686838e-13 148.194018 13.3424561 148.194018"></polygon>
            <path d="M52.1574707,148.194018 L65.4999268,148.194018 L65.4999268,92.3269421 L99.5338923,92.3269421 C130.428456,92.3269421 146.410864,72.7056831 146.410864,47.1623715 C146.410864,21.6190599 130.428456,2.06915094 99.3198422,2.06915094 L52.1574707,2.06915094 L52.1574707,148.194018 Z M65.4999268,80.3401366 L65.4999268,14.0559564 L98.963092,14.0559564 C122.080503,14.0559564 133.282458,27.9692128 133.282458,47.1623715 C133.282458,66.2841802 122.080503,80.3401366 99.1771421,80.3401366 L65.4999268,80.3401366 Z" id="Shape"></path>
            <path d="M257.147552,38.6003676 L270.061908,38.6003676 C269.063008,16.4105075 249.869849,0 222.685486,0 C195.715174,0 174.952315,16.1964574 174.952315,39.7419681 C174.952315,58.5070267 188.223421,70.279782 211.126781,77.0580351 L228.607539,82.1952375 C246.730447,87.4751399 259.145353,94.253393 259.145353,109.16555 C259.145353,126.717658 243.234296,138.490413 221.401186,138.490413 C201.708577,138.490413 186.29697,129.000859 184.869969,111.662801 L171.170763,111.662801 C172.740464,134.780211 191.576872,150.691269 221.401186,150.691269 C253.0806,150.691269 272.059709,132.782411 272.059709,109.3796 C272.059709,85.1205888 250.940099,75.4169844 232.389091,70.208432 L216.977484,65.78473 C202.778827,61.7891282 187.86667,54.5827749 187.86667,39.1711679 C187.86667,23.4741607 201.922627,11.9868055 222.328736,11.9868055 C241.664595,11.9868055 255.506501,22.3325602 257.147552,38.6003676 Z" id="Path"></path>
            <polygon id="Path" points="345.480986 2.06915094 398.77946 96.536594 398.77946 148.194018 429.459974 148.194018 429.459974 96.536594 482.758449 2.06915094 448.153683 2.06915094 414.833218 64.9998796 413.406217 64.9998796 380.085752 2.06915094"></polygon>
            <path d="M548.544844,150.334519 C581.793959,150.334519 602.485469,127.573858 602.485469,93.8252928 C602.485469,59.8626773 581.793959,37.1733669 548.544844,37.1733669 C515.295729,37.1733669 494.60422,59.8626773 494.60422,93.8252928 C494.60422,127.573858 515.295729,150.334519 548.544844,150.334519 Z M548.687544,126.789008 C533.347287,126.789008 525.498784,112.733051 525.498784,93.6112427 C525.498784,74.489434 533.347287,60.3621275 548.687544,60.3621275 C563.742401,60.3621275 571.590905,74.489434 571.590905,93.6112427 C571.590905,112.733051 563.742401,126.789008 548.687544,126.789008 Z" id="Shape"></path>
            <path d="M692.601971,101.531096 C692.673321,116.229203 682.612966,123.935007 671.696411,123.935007 C660.209056,123.935007 652.788653,115.872453 652.717303,102.958097 L652.717303,38.6003676 L622.322189,38.6003676 L622.322189,108.380699 C622.393539,133.995361 637.377046,149.621018 659.424206,149.621018 C675.906063,149.621018 687.750169,141.130364 692.673321,128.287358 L693.814922,128.287358 L693.814922,148.194018 L722.997085,148.194018 L722.997085,38.6003676 L692.601971,38.6003676 L692.601971,101.531096 Z" id="Path"></path>
            <path d="M805.550502,38.6003676 L784.930343,38.6003676 L784.930343,12.3435556 L754.535229,12.3435556 L754.535229,38.6003676 L739.551722,38.6003676 L739.551722,61.432378 L754.535229,61.432378 L754.535229,118.512404 C754.392529,139.988764 769.019286,150.619919 791.066446,149.692368 C798.914949,149.406968 804.480252,147.837267 807.548303,146.838367 L802.767851,124.220407 C801.2695,124.505807 798.058749,125.219307 795.204748,125.219307 C789.139995,125.219307 784.930343,122.936106 784.930343,114.516802 L784.930343,61.432378 L805.550502,61.432378 L805.550502,38.6003676 Z" id="Path"></path>
            <path d="M855.710468,84.8351887 C855.781818,70.7078822 864.415172,62.4312785 876.830078,62.4312785 C889.173634,62.4312785 896.451337,70.3511321 896.379987,83.8362882 L896.379987,148.194018 L926.775352,148.194018 L926.775352,78.4136858 C926.846451,52.727674 911.720244,37.1733669 888.888234,37.1733669 C872.263676,37.1733669 861.133071,45.0218705 856.138569,57.9362264 L854.854268,57.9362264 L854.854268,2.06915094 L825.315355,2.06915094 L825.315355,148.194018 L855.710468,148.194018 L855.710468,84.8351887 Z" id="Path"></path>
        </g>
        <g id="TEDx" transform="translate(0, 2.414)" fill="#ED1C34">
            <polyline id="Fill-1" points="40.852 37.41 -2.84217094e-14 37.41 -2.84217094e-14 0 126.566 0 126.566 37.41 85.73 37.41 85.73 145.969 40.852 145.969 40.852 37.41"></polyline>
            <polyline id="Fill-2" points="133.543 0 256.41 0 256.41 37.41 178.453 37.41 178.453 55.602 256.41 55.602 256.41 90.367 178.453 90.367 178.453 108.559 256.43 108.559 256.43 145.969 133.543 145.969 133.543 0"></polyline>
            <path d="M308.875,108.559 L326.441,108.559 C354.418,108.559 358.508,85.859 358.508,72.145 C358.508,62.965 355.633,37.41 323.172,37.41 L308.875,37.41 L308.875,108.559 Z M263.969,0 L337.668,0 C386.246,0 403.418,35.981 403.418,72.77 C403.418,117.555 379.734,145.969 328.898,145.969 L263.969,145.969 L263.969,0 L263.969,0 Z" id="Fill-3"></path>
            <polyline id="Fill-4" points="467.949 90.078 454.25 67.328 440.891 90.078 407.984 90.078 439.223 44.078 409.145 0.078 442.059 0.078 454.25 21.828 466.789 0.078 499.695 0.078 469.625 44.078 500.863 90.078 467.949 90.078"></polyline>
        </g>
    </g>
</svg>